<svg xmlns="http://www.w3.org/2000/svg" width="806.999" height="247.339" viewBox="0 0 213.518 65.442">
    <g transform="translate(71.23 -273.35)">
        <path d="M47.335 319.671a12.08 12.08 0 0 0-4.146-3.887 10.398 10.398 0 0 0 3.117-3.26q1.17-1.941 1.172-4.746a10.636 10.636 0 0 0-.915-4.458 10.08 10.08 0 0 0-2.543-3.44 11.467 11.467 0 0 0-3.89-2.201 15.166 15.166 0 0 0-4.944-.773H15.464v40.03h20.865a15.012 15.012 0 0 0 5.117-.832 11.84 11.84 0 0 0 3.969-2.312 10.208 10.208 0 0 0 2.574-3.614 11.642 11.642 0 0 0 .915-4.686q.003-3.421-1.569-5.821zm-24.44-16.465h11.72q2.571 0 4.002 1.23 1.432 1.23 1.43 3.63 0 2.398-1.43 3.773-1.428 1.376-4.003 1.37H22.896zm17.236 25.93q-1.342 1.515-4.374 1.515H22.896V319.5h12.861q2.974 0 4.347 1.685a6.2 6.2 0 0 1 1.37 4.033q0 2.402-1.343 3.902zM.769 336.591a15.346 15.346 0 0 0 5.23-3.286 14.21 14.21 0 0 0 3.287-4.916 15.904 15.904 0 0 0 1.145-6.032v-25.44H3.01v25.44a10.549 10.549 0 0 1-.67 3.852 7.937 7.937 0 0 1-1.852 2.857 8.13 8.13 0 0 1-2.886 1.802 11.49 11.49 0 0 1-7.488 0 8.141 8.141 0 0 1-2.89-1.802 8.004 8.004 0 0 1-1.851-2.857 10.607 10.607 0 0 1-.656-3.86v-25.432h-7.443v25.44a15.954 15.954 0 0 0 1.143 6.032 14.21 14.21 0 0 0 3.286 4.916 15.433 15.433 0 0 0 5.204 3.286 20.595 20.595 0 0 0 13.862 0M-49.079 336.935l9.091-17.436q.794-1.484 1.426-2.802.633-1.318 1.202-2.6.571-1.287 1.116-2.63.545-1.345 1.172-2.83h.228q-.117 1.588-.228 3.001c-.079.934-.135 1.84-.172 2.715a138.84 138.84 0 0 0-.087 2.717c-.021.934-.029 1.934-.029 3v16.865h7.432v-40.018h-8.287l-7.776 15.205q-.794 1.548-1.458 2.86c-.439.876-.857 1.736-1.256 2.572a72.47 72.47 0 0 0-1.172 2.575c-.379.878-.794 1.81-1.202 2.799q-.63-1.482-1.2-2.805-.572-1.322-1.173-2.574c-.4-.836-.82-1.696-1.257-2.572-.436-.875-.923-1.828-1.458-2.86l-7.776-15.2h-8.286v40.018h7.429v-16.864q0-1.588-.026-3-.027-1.414-.088-2.718-.055-1.323-.172-2.715-.116-1.391-.227-3h.227q.572 1.484 1.143 2.828.572 1.344 1.146 2.63c.378.857.78 1.725 1.198 2.601.419.876.897 1.812 1.43 2.802zM53.707 296.917h7.432v40.018h-7.432z" style="fill:#000;stroke-width:.26458332"/>
        <circle cx="132.523" cy="305.6" r="8.766" style="fill:#000;stroke-width:.26458332"/>
        <circle cx="87.383" cy="305.6" r="8.766" style="fill:#000;stroke-width:.26458332"/>
        <circle cx="109.954" cy="305.6" r="8.766" style="fill:#000;stroke-width:.26458332"/>
        <circle cx="87.383" cy="283.116" r="8.766" style="fill:#000;stroke-width:.26458332"/>
        <circle cx="109.954" cy="283.116" r="8.766" style="fill:#000;stroke-width:.26458332"/>
        <circle cx="87.383" cy="328.087" r="8.766" style="fill:#000;stroke-width:.26458332"/>
        <circle cx="109.954" cy="328.087" r="8.766" style="fill:#000;stroke-width:.26458332"/>
    </g>
</svg>